<?xml version="1.0" encoding="UTF-8" standalone="no"?>
<!-- Created with Inkscape (http://www.inkscape.org/) -->

<svg
   width="617.18799"
   height="131.12"
   viewBox="0 0 163.29765 34.692165"
   version="1.1"
   id="svg1"
   xmlns="http://www.w3.org/2000/svg"
   xmlns:svg="http://www.w3.org/2000/svg">
  <defs
     id="defs1" />
  <g
     id="layer1">
    <path
       style="font-size:35.2778px;font-family:'Genshin Impact DRIP FONT';-inkscape-font-specification:'Genshin Impact DRIP FONT, Normal';fill:#1a1a1a;stroke-width:0.265"
       d="M 0.08612858,4.995392 H 17.03601 q 2.704402,0 4.805911,1.6364214 1.584745,1.550294 1.584745,4.7025586 v 0.378961 q 0,7.785921 -11.386048,7.785921 H 9.2845397 v 0.05168 q -0.086127,3.272843 -0.086127,3.789608 0,3.203941 1.1196567,4.151343 0.568441,0.413411 2.98001,0.413411 l 0.05168,0.08613 v 1.60197 q 0,0.08613 -0.103353,0.08613 H 0.08612858 q -0.086127447512,0 -0.086127447512,-0.08613 v -1.60197 q 0,-0.120579 1.7225488675117,-0.172255 1.1196568,-0.396186 1.584745,-1.360814 0.4306372,-1.050755 0.4306372,-2.239313 V 11.437725 q 0,-3.5829018 -2.2048625,-4.2891469 Q 0.84405009,6.9590977 0.13780504,6.8212938 1.1324883e-6,6.7007154 1.1324883e-6,6.6662644 V 5.0815194 Q 0.01722662,4.995392 0.08612858,4.995392 Z M 9.3878926,6.7696173 V 17.501097 q 0.5339902,0.05168 0.7923724,0.05168 3.083363,0 5.770539,-1.774225 1.739774,-1.619196 1.739774,-3.824058 v -0.103353 q 0,-3.1350394 -3.462323,-4.7542354 Q 13.194726,6.7696173 12.040618,6.7696173 Z M 35.55341,5.1159704 h 5.46048 q 0.258383,0 1.257461,3.066137 1.705323,4.5647546 6.252853,17.2082636 0.895725,1.808676 2.377117,2.377117 0.447863,0.15503 0.602892,0.15503 h 0.499539 q 0.103353,0 0.103353,0.08613 v 1.56752 q 0,0.103353 -0.103353,0.103353 H 40.152616 q -0.103353,0 -0.103353,-0.103353 v -1.56752 q 0.01722,-0.08613 0.103353,-0.08613 h 1.963706 q 1.25746,0 1.25746,-0.809598 h 0.05168 q 0,-0.620118 -2.82498,-8.28546 -3.427873,-8.9744801 -3.427873,-9.2673134 h -0.05168 q -1.757,5.1848724 -3.634578,11.0415384 -1.843128,4.857588 -1.963706,6.855745 0.310059,0.465088 1.912029,0.465088 h 1.619196 q 0.103353,0 0.103353,0.08613 v 1.56752 q 0,0.103353 -0.103353,0.103353 h -9.680725 q -0.103353,0 -0.103353,-0.103353 v -1.56752 q 0.01723,-0.08613 0.103353,-0.08613 h 1.257461 q 0.775147,0 1.808676,-1.378039 0.844049,-1.360814 1.825902,-4.685333 4.840363,-14.2799307 5.150421,-15.279009 0.08613,-0.4995392 0.08613,-0.9129509 l -0.03445,-0.4995392 z m 1.774226,13.1602736 h 0.05168 q 1.515843,1.688098 2.82498,2.170412 v 0.103353 q -1.06798,0.137803 -2.773303,1.756999 0,0.08613 -0.15503,0.15503 -1.670872,-1.774226 -2.721627,-2.067059 -0.103353,0 -0.103353,-0.103353 v -0.05168 q 1.343588,-0.327285 2.876657,-1.963706 z M 59.014527,1.6391277e-7 h 0.08613 V 0.05167663 q 0.34451,2.82498017 1.309138,5.23654867 0.602892,1.3952646 1.894803,2.6182743 0.947402,0.7234706 3.100588,1.2057843 1.41249,0.1894803 1.41249,0.2928333 -3.462323,1.1196568 -4.513078,3.2039408 -0.861274,1.154108 -1.894803,5.667186 -1.257461,7.544764 -1.309138,11.403274 h -0.08613 v -0.05168 q 0,-3.100588 -1.22301,-10.903734 -0.826823,-3.875735 -1.739774,-5.718863 -0.516765,-1.136882 -1.894804,-2.239313 -1.050755,-0.757922 -2.859431,-1.3608138 V 9.3534407 Q 54.088037,8.871127 55.121566,8.3371368 56.895792,7.4241859 58.032674,4.4097254 59.014527,1.1541079 59.014527,1.6391277e-7 Z M 70.796765,4.9092645 h 8.371588 q 0.72347,0.3617353 3.806833,8.4232645 l 3.393421,8.13043 q 0.18948,0.08613 0.275608,0.08613 6.287303,-14.6416657 7.079676,-16.588146 l 0.08613,-0.051677 h 8.871132 q 0.10335,0.017226 0.10335,0.103353 v 1.2919116 q 0,0.086127 -1.44694,0.2756079 -1.22301,0.3961862 -1.722552,1.3608136 -0.223931,0.740696 -0.223931,1.6708724 v 15.244558 q 0,2.256539 1.395263,2.790529 0.51677,0.275608 1.99816,0.465088 v 1.343588 q 0,0.08613 -0.10335,0.08613 H 91.260646 q -0.103353,0 -0.103353,-0.08613 v -1.309137 q 0,-0.0689 1.395265,-0.361735 1.670872,-0.637343 1.670872,-2.514921 0,-0.465089 0.05168,-0.465089 -0.05168,-0.620117 -0.05168,-0.930176 V 10.57645 q 0,-0.361735 0.05168,-0.8784995 -0.08613,-1.1541078 -0.18948,-1.1541078 -0.413412,0 -1.119657,2.0842843 l -7.75147,18.689655 h -0.103353 q -0.120578,0 -1.240235,0.05168 -5.11597,-12.040617 -5.822215,-13.763166 -1.688098,0.775147 -2.687177,2.549373 -0.878499,1.980931 -1.395264,4.323597 -1.240235,6.959098 -1.257461,10.369745 l -0.103353,0.05168 q -0.03445,-0.103353 -0.03445,-0.137804 0,-2.756078 -1.119657,-9.629048 -0.654568,-2.997235 -1.446941,-4.788686 -0.930176,-1.791451 -2.635499,-2.704402 -1.533069,-0.637343 -1.774226,-0.637343 v -0.103353 h 0.05168 q 1.41249,0 3.720705,-1.016304 1.670873,-0.981853 2.687177,-4.5647543 Q 72.519314,7.7514702 72.519314,6.7179409 72.054226,6.545686 70.710637,6.3562056 V 5.0126175 q 0.01723,-0.103353 0.08613,-0.103353 z m 1.912029,1.9120293 v 0.034451 q 0,1.0679803 1.119657,4.3235982 1.102431,2.446019 2.876657,3.083362 0.706245,0.223931 0.844049,0.223931 Q 75.551,9.4912446 74.896431,8.5782937 73.483941,6.9590977 72.708794,6.8212938 Z M 119.30374,4.9781665 q 5.08152,0 9.06061,3.5484507 3.78961,3.7379308 3.78961,8.7160978 0,4.668107 -3.68626,8.526617 -4.11689,3.910186 -9.68072,3.910186 -5.64996,0 -9.6635,-4.099667 -3.18672,-3.54845 -3.18672,-7.872048 v -0.327284 q 0,-4.978167 4.01354,-8.8022253 4.04799,-3.6001272 9.35344,-3.6001272 z m -2.0326,2.0326077 v -0.051677 q -2.96279,0.844049 -4.56476,3.5139993 -1.10243,1.963706 -1.15411,2.807755 -0.15503,0 -0.41341,1.894804 -0.10335,1.41249 -0.1378,1.41249 l 0.0517,0.241157 v 0.689019 l 0.0517,0.465089 h -0.0517 q 0.31006,3.376196 2.25654,6.390656 1.51585,1.963706 2.80776,2.6355 0.58566,0.34451 1.24023,0.602892 v 0.03445 l 0.10336,-0.03445 q 0.41341,0.172255 1.37803,0.361735 0.0517,0 0.0517,-0.05168 l 0.44786,0.05168 h 0.0517 q 0.10335,0 0.18948,-0.05168 l 0.0861,0.05168 q 1.34359,0 3.08336,-0.964627 2.5666,-1.533069 3.82406,-5.667186 0.31006,-1.533068 0.41341,-2.721627 l -0.0345,-0.08613 q 0,-0.05168 0.0345,-0.137804 l -0.0345,-0.275607 h 0.0345 l -0.0345,-0.103353 q 0,-0.137804 0.0345,-0.137804 l -0.0345,-0.223932 v -0.465088 l -0.0517,-0.465088 h 0.0517 l -0.27561,-1.515843 h 0.0345 q -0.98185,-3.979088 -3.08336,-5.9772447 0,-0.103353 -0.82682,-0.7923725 -2.08429,-1.5675195 -3.96187,-1.5675195 h -0.18948 q -0.0517,0 -0.0517,-0.051677 l -0.0861,0.051677 h -0.1378 q -0.0517,0 -0.0517,-0.051677 -0.67179,0.103353 -1.05075,0.1894804 z M 137.64888,4.92649 h 5.80499 q 0.7407,0 2.03261,1.8603528 1.18856,1.4297156 12.05784,14.7450182 V 10.628127 q 0,-0.361735 0.0517,-0.8785001 0,-1.9809312 -1.06798,-2.6871762 -0.6029,-0.3789608 -2.04984,-0.6545686 V 5.0642939 q 0.0172,-0.086127 0.10336,-0.086127 h 8.61274 q 0.10335,0.017225 0.10335,0.086127 v 1.3091372 q 0,0.068902 -1.44694,0.2756078 -1.22301,0.3789608 -1.70532,1.3435882 -0.24116,0.740696 -0.24116,1.6708724 V 29.455586 q 0,0.103353 -0.0861,0.103353 h -1.757 q -1.44695,-1.688098 -4.1858,-5.11597 L 140.57721,8.4060388 Q 139.97432,7.4930879 139.09582,7.0624507 138.76854,6.8729703 137.56275,6.511235 V 5.029843 q 0.0172,-0.103353 0.0861,-0.103353 z m 1.94648,3.5656763 q 0.32729,2.2909897 1.06798,4.3235977 1.10243,2.446019 2.46325,3.048912 2.18763,0.895725 3.47955,0.895725 v 0.08613 q -2.73886,0.757922 -3.89297,2.497696 -0.67179,0.809598 -1.53306,3.806833 -0.7407,2.824981 -1.34359,8.578294 -0.18948,2.153186 -0.18948,2.928333 l -0.0861,0.03445 q -0.0517,-0.08613 -0.0517,-0.137804 0,-2.738853 -1.11965,-9.594597 -0.63735,-2.997235 -1.42972,-4.771461 -0.9474,-1.791451 -2.65272,-2.687176 -1.51585,-0.654569 -1.757,-0.654569 v -0.08613 h 0.0517 q 2.39435,-0.292833 3.61736,-0.981853 1.72254,-1.033529 2.6355,-4.082441 0.46508,-1.550294 0.70624,-3.2039407 z"
       id="text1"
       aria-label="PAIMON" />
  </g>
</svg>
